<svg width="37" height="34" viewBox="0 0 37 34" fill="none" xmlns="http://www.w3.org/2000/svg">
<g filter="url(#filter0_di_18_74)">
<path d="M32.2984 5.32818C31.8484 4.28552 31.1996 3.34067 30.3883 2.54652C29.5764 1.75 28.6191 1.11702 27.5686 0.682001C26.4792 0.229118 25.3108 -0.0026936 24.1311 2.36135e-05C22.4762 2.36135e-05 21.4032 0.643329 20 1.5C18.5 3 18.8021 5.08294 18.5 5.32818C18.1979 5.08294 18.4032 2.35667 17 1.5C15.5968 0.643329 14.5271 2.36135e-05 12.8722 2.36135e-05C11.6805 2.36135e-05 10.5257 0.228469 9.43477 0.682001C8.38071 1.11874 7.43072 1.74696 6.615 2.54652C5.80263 3.33977 5.15368 4.28485 4.70494 5.32818C4.23834 6.4133 4 7.56561 4 8.75151C4 9.87022 4.22827 11.036 4.68144 12.2219C5.06077 13.2129 5.60458 14.2409 6.29945 15.279C7.40051 16.9218 8.91445 18.6351 10.7943 20.372C13.9095 23.2511 16.9944 25.2399 17.1253 25.3205L17.9209 25.8312C18.2734 26.0563 18.7266 26.0563 19.079 25.8312L19.8746 25.3205C20.0055 25.2366 23.0871 23.2511 26.2057 20.372C28.0855 18.6351 29.5995 16.9218 30.7005 15.279C31.3954 14.2409 31.9426 13.2129 32.3185 12.2219C32.7717 11.036 33 9.87022 33 8.75151C33.0033 7.56561 32.765 6.4133 32.2984 5.32818Z" fill="#C10000"/>
</g>
<defs>
<filter id="filter0_di_18_74" x="0" y="0" width="37" height="34" filterUnits="userSpaceOnUse" color-interpolation-filters="sRGB">
<feFlood flood-opacity="0" result="BackgroundImageFix"/>
<feColorMatrix in="SourceAlpha" type="matrix" values="0 0 0 0 0 0 0 0 0 0 0 0 0 0 0 0 0 0 127 0" result="hardAlpha"/>
<feOffset dy="4"/>
<feGaussianBlur stdDeviation="2"/>
<feComposite in2="hardAlpha" operator="out"/>
<feColorMatrix type="matrix" values="0 0 0 0 0 0 0 0 0 0 0 0 0 0 0 0 0 0 0.25 0"/>
<feBlend mode="normal" in2="BackgroundImageFix" result="effect1_dropShadow_18_74"/>
<feBlend mode="normal" in="SourceGraphic" in2="effect1_dropShadow_18_74" result="shape"/>
<feColorMatrix in="SourceAlpha" type="matrix" values="0 0 0 0 0 0 0 0 0 0 0 0 0 0 0 0 0 0 127 0" result="hardAlpha"/>
<feOffset dy="4"/>
<feGaussianBlur stdDeviation="2"/>
<feComposite in2="hardAlpha" operator="arithmetic" k2="-1" k3="1"/>
<feColorMatrix type="matrix" values="0 0 0 0 0 0 0 0 0 0 0 0 0 0 0 0 0 0 0.25 0"/>
<feBlend mode="normal" in2="shape" result="effect2_innerShadow_18_74"/>
</filter>
</defs>
</svg>
